<svg preserveAspectRatio="none" width="100%" height="100%" overflow="visible" style="display: block;" viewBox="0 0 302 32" fill="none" xmlns="http://www.w3.org/2000/svg">
<path id="Vector 1" d="M23.3675 31.7444C23.5543 31.7038 24.306 31.8026 24.6313 31.7854C24.2625 32.2147 22.6935 31.8918 23.3675 31.7444ZM56.7421 0.573321C56.4722 0.679445 56.2022 0.785569 55.9323 0.891693C56.6994 0.960649 57.7306 0.882756 58.4426 0.983493C58.559 1.00041 58.2569 1.30768 58.5324 1.3214C58.808 1.33503 58.7549 0.915123 59.1557 0.870208C59.6053 0.821103 61.6638 1.11364 62.3768 1.10654C65.0432 1.0782 67.7325 0.838396 70.4042 1.01279C67.646 1.32345 70.4254 1.63963 71.198 1.505C71.3692 1.47382 71.3418 0.693182 74.1092 0.88974C75.8679 1.01447 74.2435 2.13051 77.1782 1.57141C74.9215 0.79066 77.1407 0.845378 78.9097 0.819425C79.2147 0.814826 81.6777 0.932129 82.7656 0.897552C83.1379 0.885527 83.705 0.476625 84.1987 0.465896C84.5386 0.458817 84.7955 0.682364 85.3001 0.670981C87.6523 0.620594 89.9655 0.603211 92.3218 0.678794C90.9448 1.72958 93.4026 1.12662 93.513 1.17686C94.0744 1.46216 91.5354 1.54336 92.5395 1.7218C93.9427 1.68925 95.3459 1.6567 96.7491 1.62414C95.5975 1.49513 98.2737 0.739285 98.7663 1.08311C98.5494 0.154597 105.162 1.89124 106.168 1.58117C106.378 1.51568 105.006 1.05678 108.189 1.26671C108.534 1.29003 108.403 1.57018 108.584 1.54406C108.692 1.52836 109.348 0.637962 110.046 1.12998C110.301 1.30956 108.67 1.89436 112.252 1.6593C110.825 0.753054 117.22 1.16851 118.396 1.39562C118.161 1.27387 117.926 1.15212 117.691 1.03037C118.854 1.35881 119.064 1.05069 119.326 1.06748C120.381 1.13493 121.833 1.44544 122.816 1.4171C123.967 1.3845 123.971 0.820903 125.313 1.04014C124.994 0.915782 124.676 0.791429 124.358 0.667075C125.284 0.697024 126.211 0.726974 127.138 0.756922C124.992 1.50297 127.601 0.792516 127.772 0.776454C128.047 0.749302 127.653 1.05473 128.111 1.0167C128.159 1.01044 128.09 0.722816 128.797 0.690514C130.273 0.624003 130.04 0.98563 130.659 0.98154C130.716 0.979676 130.517 0.720562 131.588 0.659262C134.991 0.464117 131.571 0.857829 131.441 0.893646C131.269 0.940885 132.436 2.02373 129.545 1.63977C130.516 1.762 130.614 2.24118 130.723 2.25307C130.82 2.26285 132.501 2.19536 132.594 2.17885C133.42 2.01613 132.693 1.68868 132.854 1.63C132.986 1.5827 135.012 2.00943 135.486 1.02451C136.456 1.93298 134.929 1.84975 133.303 1.98939C133.066 2.17581 134.851 2.35709 134.945 2.35659C137.247 2.35493 135.973 1.60766 136.476 1.12998C136.74 0.880052 137.679 1.38987 136.812 0.719811C138.902 0.649083 137.635 1.03736 137.77 1.09483C137.974 1.17925 138.705 0.98721 138.796 1.01279C138.931 1.05066 138.464 1.28265 138.993 1.36437C139.081 1.37625 139.935 0.977035 138.834 0.786221C140.305 0.842973 140.184 0.502562 140.682 1.18858C141.695 -0.109282 141.417 1.95573 141.816 2.02845C142.876 2.22015 142.569 1.20116 142.625 1.15147C143.01 0.833039 145.946 1.18308 146.673 1.03623C146.386 1.77017 144.346 1.04424 143.889 1.18663C142.368 1.66033 146.033 1.55357 144.929 2.47574C145.392 2.22247 145.855 1.96921 146.318 1.71594C147.167 2.30886 145.962 2.5674 148.248 2.35073C148.621 1.83896 146.632 2.43156 147.031 2.02845C147.266 1.79187 148.591 1.74106 148.617 1.61633C148.644 1.46619 147.446 1.64413 147.635 1.4132C148.047 0.914854 152.415 1.38927 149.09 1.66125C150.017 1.65274 150.495 2.64395 151.299 2.33511C151.819 2.13464 148.894 0.765659 153.283 1.0167C153.377 1.48476 151.528 1.15491 151.48 1.19053C151.413 1.24238 151.747 2.2986 151.805 2.35073C152.01 2.52238 156.493 1.9568 157.44 2.48746C157.065 1.877 160.827 2.37853 161.237 2.19252C161.346 2.14117 160.938 1.76724 161.055 1.72766C161.782 1.4921 163.75 2.1596 164.663 2.1769C165.685 2.1965 165.555 1.87354 165.612 1.87415C166.062 1.89217 165.703 2.11111 165.978 2.11049C166.393 2.10944 169.246 2.15422 169.389 2.10854C169.431 2.0943 168.965 1.72538 169.587 1.65539C169.695 1.64327 169.626 2.08067 171.468 1.89173C173.686 1.66449 169.928 1.3478 170.85 0.88974C172.274 1.54194 172.228 0.895635 172.614 0.946383C172.748 0.964868 173.744 1.51437 174.825 1.47961C174.049 1.5688 173.273 1.658 172.497 1.74719C173.26 1.84355 174.742 1.72429 175.37 1.83313C175.677 1.88612 175.424 2.33754 176.09 2.32534C176.232 2.3203 176.793 1.22051 175.048 1.71399C174.908 1.32129 175.738 1.57701 176.124 1.46593C176.182 1.44862 176.412 0.792575 176.904 1.2003C177.022 1.30061 175.736 3.21436 179.052 1.82923C179.159 1.78459 178.788 1.54492 178.892 1.49523C178.963 1.46158 179.81 1.55853 179.903 1.52453C179.999 1.48804 179.59 1.22639 179.704 1.17491C180.288 0.909606 181.055 1.94736 179.85 1.86829C180.253 1.99655 180.655 2.12481 181.058 2.25307C180.627 1.47095 181.69 2.03301 182.247 2.00892C185.815 1.85498 183.426 1.3463 184.039 1.08311C185.026 0.660525 184.272 1.99897 185.737 1.5968C185.873 1.5592 184.102 0.991046 187.56 1.31163C187.05 1.33377 186.539 1.3559 186.029 1.37804C186.323 2.13453 187.872 1.32615 187.991 1.31554C189.349 1.21167 188.431 1.48438 190.447 1.09483C190.627 1.05985 191.019 1.24655 191.404 1.15342C193 0.769753 189.298 0.920606 189.197 0.614339C189.149 0.464271 193.13 0.502064 193.267 0.573321C193.848 0.889193 191.462 0.712446 191.917 1.10459C192.083 1.24383 197.758 0.957852 198.896 1.11045C200.21 1.28803 200.801 2.31368 200.81 1.16123C201.18 2.29246 201.508 1.52065 201.676 1.52844C203.707 1.63315 203.711 1.64457 205.453 1.53625C205.838 1.5127 206.163 1.85593 206.299 1.79798C206.378 1.76297 206.23 1.39566 206.618 1.28233C207.157 1.12729 210.396 1.50509 210.636 1.70813C210.877 1.91118 209.269 1.79618 209.557 2.13002C210.721 2.16377 211.838 2.08117 213.01 2.11635C213.496 2.13196 213.246 2.36562 213.457 2.37027C213.546 2.37314 215.227 2.16738 215.156 2.08119C214.989 1.88078 209.798 2.01549 211.165 1.60656C211.429 1.52755 212.361 2.06599 212.212 1.41124C216.85 1.55969 221.487 1.70813 226.124 1.85657C223.46 2.34629 220.462 1.90832 217.671 1.95423C217.288 1.9599 215.995 1.89675 216.152 2.22768C218.526 2.31336 221.476 2.14093 223.755 2.35659C223.828 2.36373 223.56 2.66105 223.833 2.70817C224.344 2.79611 226.006 2.31658 226.286 2.44058C226.334 2.46947 225.388 2.86143 225.675 3.11053C226.414 3.74977 226.601 2.33396 227.236 2.35073C227.727 2.36431 231.027 3.04887 231.849 2.61637C232.723 2.15537 229.417 2.34873 229.661 1.97181C231.898 1.59303 234.163 1.99751 236.276 1.95033C236.314 1.94912 235.99 1.65375 236.462 1.61242C237.282 1.5405 237.498 1.95948 237.897 2.0265C238.328 2.09785 239.851 2.03781 240.055 2.19057C240.081 2.2106 239.772 2.62617 239.726 2.63785C239.062 2.80913 238.826 2.26976 238.766 2.26284C238.539 2.24239 238.316 2.44898 238.109 2.43667C237.768 2.41616 237.581 2.22502 237.131 2.20815C236.821 2.1958 237.12 2.56284 236.821 2.54605C236.711 2.53841 235.527 1.7003 235.417 2.55582C235.383 2.82556 245.066 3.17196 246.034 2.95622C245.204 2.85336 244.374 2.75049 243.543 2.64762C245.229 2.89802 247.255 2.21445 247.398 3.22577C253.65 3.30845 259.902 3.39114 266.154 3.47382C267.271 3.55998 266.659 4.20986 268.495 4.02072C268.021 3.81368 267.546 3.60664 267.072 3.3996C268.013 3.54484 272.184 3.82859 272.859 3.69453C272.947 3.67696 273.068 3.08879 274.111 3.03826C275.035 2.99364 275.184 3.43433 275.678 3.51875C276.094 3.5884 276.56 3.47293 276.683 3.49726C276.778 3.51674 276.815 3.78622 277.042 3.83321C277.761 3.9785 277.179 3.21974 277.891 4.09103C277.718 4.12424 277.544 4.15744 277.371 4.19065C278.238 4.31675 279.422 4.71231 278.145 4.90747C277.926 4.94116 278.114 4.68045 277.95 4.6809C271.539 4.72935 276.659 5.23615 278.905 4.8313C279.482 5.2176 282.716 4.98174 282.823 5.05787C282.973 5.16813 282.419 5.47686 283.145 5.74344C283.297 5.79987 287.621 5.58356 286.064 6.09697C285.743 6.20288 283.67 6.09161 283.17 6.10673C284.346 6.9255 287.102 5.75244 287.412 5.7825C288.662 5.9101 285.01 6.49208 287.827 6.58722C289.992 6.66023 287.959 6.11353 288.792 5.88016C289.26 5.74922 291.711 6.35149 291.645 5.57156C292.486 5.48827 291.993 5.90125 292.097 5.93095C292.199 5.95706 293.853 5.72358 294.39 5.88798C294.455 5.90842 294.25 6.31381 294.317 6.34698C294.448 6.40377 296.043 6.32273 296.108 6.28838C296.148 6.26452 295.768 5.9096 295.924 5.82352C296.107 5.72427 297.642 5.80779 297.726 5.70633C297.846 5.55293 295.951 5.65399 296.267 5.25709C297.14 5.35703 298.563 5.09221 299.14 4.7727C298.998 4.86406 298.152 4.87717 297.858 4.84497C297.996 4.26368 299.814 4.2716 299.193 4.73168C299.588 4.4846 299.318 4.35351 299.541 4.12033C299.599 4.06126 300.16 4.0491 300.269 3.94845C300.283 3.9284 299.703 3.70908 299.819 3.59101C300.03 3.37767 301.732 3.42566 301.871 3.48164C302.263 3.64025 300.875 3.83217 300.76 4.07736C300.743 4.11501 301.924 4.59549 301.941 4.63793C302.011 5.09322 300.697 4.76511 300.847 5.17506C301.172 5.26165 301.497 5.34824 301.822 5.43483C300.569 5.84997 298.25 5.6365 297.652 6.10869C299.51 5.96817 301.455 5.98479 301.451 7.04818C301.449 7.49602 300.648 7.75856 300.679 7.87243C300.797 8.27986 301.91 7.83724 301.951 7.85875C301.985 7.88358 302 7.90776 302 7.93129C302 7.9313 302 7.93131 302 7.93132C302 8.16987 300.414 8.34166 300.334 8.45057C300.201 8.64406 300.907 9.44047 300.906 9.61663C300.881 9.65202 299.752 9.8405 300.133 10.1479C300.518 10.4584 301.507 10.4653 301.542 10.4975C301.731 10.6833 300.001 10.8527 299.95 10.9624C299.922 11.0178 300.851 11.3586 300.878 11.4565C300.901 11.5549 300.196 11.7693 299.917 12.0796C299.71 12.3101 300.314 12.4869 300.208 12.523C300.132 12.5469 298.498 12.543 298.417 12.5835C298.298 12.6435 298.68 12.919 298.625 12.9879C298.546 13.0869 298.018 12.9875 298.087 13.0894C298.138 13.1654 300.184 14.1151 300.171 14.3688C300.147 14.8014 297.981 13.8059 299.997 15.5133C300.011 15.5246 300.502 15.4032 300.515 15.4137C300.818 15.7279 299.245 16.2111 301.168 16.1266C297.591 16.6723 300.723 16.7771 300.194 17.5056C299.989 17.7856 298.602 17.9011 298.596 17.9431C298.731 18.2984 299.173 18.0228 299.323 18.197C299.406 18.2944 298.165 18.67 298.444 18.9139C298.588 19.0396 299.906 18.9948 299.96 19.0193C300.481 19.2506 299.842 19.4997 299.957 19.6639C300.033 19.774 300.828 19.7827 300.848 19.8026C300.882 19.8438 299.802 20.2888 299.578 20.4452C299.407 20.5655 300.048 20.754 299.929 20.8065C299.21 21.1202 297.682 20.3201 299.155 21.4413C299.245 21.5101 299.802 21.4823 299.818 21.496C300.163 21.8138 299.137 21.8413 298.953 22.1015C298.638 22.5498 300.113 22.2999 298.886 22.6152C299.806 22.9084 300.319 22.8961 301.395 22.8144C298.415 23.0424 297.363 24.203 300.672 24.1738C299.619 24.1557 299.736 24.8108 299.422 24.8223C299.227 24.8287 297.7 24.1774 298.4 25.6387C298.488 25.8213 299.415 25.5893 299.125 25.963C296.899 25.8676 299.078 26.2007 299.08 26.2501C299.051 27.1109 293.613 26.4058 292.679 26.504C291.595 26.6178 290.631 27.2961 290.396 27.297C289.62 27.2973 290.264 26.9529 290.09 26.8263C289.915 26.7008 287.71 27.3606 287.6 27.3243C287.173 27.1788 287.606 26.7707 287.562 26.7501C287.033 26.5 284.072 26.8196 283.243 26.7247C283.268 26.9894 284.933 27.0105 283.894 27.4357C282.684 27.9314 282.614 26.7643 282.583 26.713C277.038 26.7241 271.494 26.7351 265.949 26.7462C266.018 27.3671 269.643 26.8988 269.726 26.9806C270.21 27.4646 264.087 27.4557 263.335 27.2364C263.906 27.3706 264.477 27.5047 265.047 27.6388C264.073 28.3526 261.917 27.4252 260.507 27.7404C260.052 27.8425 260.926 28.1181 260.908 28.1369C260.396 28.4141 259.575 28.2005 260.189 27.8283C258.94 28.1849 259.122 27.7914 258.164 27.7619C258.115 27.7606 258.526 28.0487 257.768 28.1681C257.412 28.2238 255.517 28.2248 255.263 28.4767C255.159 28.5828 256.12 29.6999 256.239 28.7385C258.3 29.2071 256.898 28.3003 257.699 28.3224C257.821 28.3275 257.539 28.8641 259.556 28.6115C259.171 29.5793 256.849 28.8556 256.451 28.9728C255.63 29.2138 259.013 29.7136 259.634 28.9592C259.344 29.7144 259.874 29.0609 260.628 29.092C261.454 29.1257 261.094 29.3505 261.541 29.3518C262.762 29.3574 262.256 28.8243 263.263 29.3049C262.281 27.8171 264.987 29.1086 265.775 29.4982C264.492 29.5738 263.21 29.6493 261.926 29.7248C262 29.8029 262.073 29.8811 262.147 29.9592C261.809 29.9481 261.471 29.9371 261.133 29.926C261.187 29.8511 261.241 29.7763 261.295 29.7014C259.553 30.1882 259.127 29.6411 258.985 29.635C257.156 29.5715 255.043 29.5762 253.194 29.5744C252.917 29.5742 253.107 30.0611 251.085 29.6799C250.44 29.5585 251.049 29.1797 250.317 29.2365C249.403 30.2659 249.42 29.4449 249.148 29.4436C248.368 29.4437 247.891 29.6987 247.819 29.7014C246.854 29.7412 245.442 29.6986 244.383 29.7365C244.363 29.7404 244.914 30.0567 244.227 29.9631C243.985 29.9297 241.818 28.5797 239.924 29.0197C240.416 29.1109 240.909 29.202 241.402 29.2932C240.822 29.1658 236.763 29.506 237.756 29.8674C238.364 30.0883 239.849 29.2181 240.012 30.0549C238.661 29.8045 231.201 30.179 230.62 29.9846C230.539 29.9568 231.034 29.6853 230.923 29.6506C230.837 29.6241 229.128 29.6885 228.901 29.5842C228.766 29.5222 229.521 29.3558 229.46 29.258C229.406 29.1883 227.272 29.072 227.15 29.4123C227.674 29.2757 229.147 29.395 228.374 29.6818C228.275 29.7175 227.76 29.498 227.639 29.5432C226.519 29.9602 229.867 29.8601 230.385 29.8635C228.282 30.2971 225.03 29.786 222.593 30.0686C221.609 29.7853 224.053 29.6353 222.939 29.4006C220.628 28.9141 222.324 29.7923 222.252 29.8283C221.679 30.1141 219.724 28.5826 219.723 29.7483C218.885 29.5728 219.156 29.4258 217.974 29.5783C218.129 29.6591 218.285 29.7398 218.44 29.8205C217.128 30.4958 214.35 28.7922 214.558 28.6623C215.118 28.3145 216.565 28.857 216.688 28.8439C216.871 28.8246 217.377 27.6418 219.378 28.6994C220.198 27.906 216.206 28.1639 218.022 27.6232C216.795 27.7119 211.749 27.1597 211.022 27.5079C210.936 27.5534 211.339 28.3439 210.093 27.9415C209.501 27.75 210.928 27.7408 210.657 27.5607C209.824 27.008 198.489 27.3615 196.336 27.3907C196.196 27.3916 196.248 27.1463 196.11 27.1485C195.689 27.1554 194.151 27.5212 193.396 27.4083C194.96 27.8624 191.922 27.8978 191.15 27.8478C189.977 27.7717 190.049 27.34 189.543 27.2482C187.59 26.8943 184.563 27.9193 183.046 26.961C183.129 27.9121 180.422 26.4948 179.19 26.4864C178.226 26.4796 176.826 27.109 178.128 27.4923C176.463 27.4485 174.71 27.626 173.148 27.6837C172.89 27.6934 173.245 27.4122 172.805 27.4376C172.765 27.442 172.709 27.7176 172.331 27.7462C169.208 27.9865 170.728 27.4008 170.143 27.2286C169.816 27.1322 169.575 27.0843 169.398 27.0685C171.218 27.0146 173.318 26.9064 173.879 26.8985C173.4 26.2899 169.845 27.0154 168.804 26.8517C168.767 26.8457 168.893 26.5103 168.857 26.5079C168.856 26.5079 168.855 26.5079 168.854 26.5079C168.464 26.4822 165.979 26.606 166.49 27.006C166.628 27.1128 167.772 27.1126 169.128 27.0763C168.761 27.1513 169.035 27.5271 168.971 27.5431C168.185 27.7288 166.26 27.3621 165.577 27.3126C165.421 27.3018 165.432 27.5425 165.406 27.5431C164.785 27.4884 165.04 26.801 164.403 27.5099C163.278 26.6532 166.511 27.3827 166.283 26.8263C166.108 26.3979 158.928 26.628 158.949 27.3029C158.924 27.2307 158.825 27.1411 158.623 27.0392C158.174 26.8127 156.175 26.8836 155.83 27.0079C155.772 27.0324 155.795 27.6874 155.723 27.6935C155.543 27.7085 153.1 27.195 152.188 27.5822C152.68 27.674 153.173 27.7658 153.666 27.8576C150.69 27.8632 151.15 28.0582 152.142 28.2541C152.191 28.2558 152.239 28.2807 152.287 28.2834C153.055 28.4282 154.04 28.5676 154.055 28.6193C154.111 28.8165 149.064 28.9262 150.034 28.3185C150.17 28.2355 152.505 28.506 151.349 28.0724C151.147 27.9964 149.647 28.1202 149.568 28.0724C149.041 27.7547 152.316 27.3325 151.916 26.881C151.121 27.3109 150.101 27.0844 149.189 27.1954C148.774 27.2456 148.672 27.574 148.621 27.5802C147.856 27.6659 148.285 27.3216 148.03 27.3302C147.893 27.3361 146.386 28.069 146.671 27.0587C141.704 27.8019 145.297 27.8012 148.343 27.7443C147.381 28.1122 145.493 27.9343 144.646 28.0197C144.342 28.0507 144.523 28.3878 144.009 28.4552C142.953 28.5939 137.909 28.2067 136.595 28.1154C137.402 27.9963 137.166 27.6291 136.543 27.6544C135.92 27.68 136.443 28.1701 136.322 28.2228C136.191 28.2774 133.269 28.046 132.783 28.1095C134.983 27.932 134.487 27.5658 132.619 27.5275C132.889 27.422 133.159 27.3165 133.429 27.2111C132.334 27.3593 130.033 26.8007 129.4 26.9669C129.301 26.9936 129.658 27.3015 129.602 27.3165C129.047 27.4473 127.159 27.1333 127.071 27.2384C126.996 27.3259 127.802 27.584 127.503 27.7111C127.44 27.7378 126.664 27.3216 125.899 27.4239C125.615 27.4616 125.786 27.7528 125.715 27.7697C125.119 27.9097 125.471 27.4194 124.382 27.4982C123.584 27.5565 122.99 28.0359 121.888 27.8771C125.507 28.4882 122.465 28.2329 120.951 28.4181C120.709 28.4477 120.917 28.9763 119.467 28.7189C122.551 27.7631 118.588 28.2137 117.777 28.2033C117.733 28.2 117.718 27.8514 117.32 27.8458C117.286 27.8462 117.335 28.0817 116.965 28.0998C113.46 28.2701 115.701 28.0039 115.035 27.7716C114.752 27.6726 113.048 28.0058 112.589 28.0138C112.483 28.0146 112.531 27.7699 112.123 27.7794C111.401 27.797 110.753 28.0576 110.276 28.0783C110.221 28.0795 110.218 27.6932 109.314 27.8185C109.06 27.8535 108.775 27.9907 109.136 28.1017C110.333 28.467 112.604 27.8348 113.957 28.1994C115.191 28.5314 111.3 28.5627 111.098 28.5646C111.023 28.5658 111.783 28.374 111.011 28.3361C110.352 28.3045 109.147 28.9716 108.165 28.8263C108.09 28.8156 107.305 28.2499 107.341 28.2169C107.374 28.1929 108.579 28.0701 108.404 27.9064C108.383 27.8877 107.617 27.8915 107.517 27.7697C107.395 27.6213 107.065 26.1655 106.901 26.129C106.481 26.0388 106.754 26.3708 106.483 26.3477C105.9 26.299 103.88 25.8685 103.815 26.3731C104.148 26.4031 104.482 26.433 104.816 26.463C102.959 26.5149 103.75 26.7297 103.487 26.8243C103.204 26.9267 103.284 26.4832 102.658 26.4415C102.522 26.4323 99.903 26.5249 99.9506 26.711C101.399 26.4148 100.862 26.963 100.929 26.9728C101.182 27.0085 101.507 26.701 101.847 26.7071C104.241 26.7552 101.827 27.2406 102.392 27.3654C102.586 27.4074 102.974 27.1449 103.057 27.1583C103.325 27.2018 103.329 27.5455 103.508 27.5177C103.926 27.4532 103.438 26.9668 103.471 26.9415C103.844 26.6371 105.307 27.0158 104.396 27.545C104.943 27.7358 105.007 27.0926 105.44 27.3497C106.302 27.8589 105.011 27.7281 104.661 27.8126C103.407 28.1176 103.035 27.8707 101.259 27.9552C100.62 27.985 99.8625 28.2975 99.5658 28.3146C99.3789 28.3254 97.6144 27.2384 97.5624 28.9396C96.8765 28.775 95.8003 27.6539 95.0936 27.7052C94.4591 27.752 94.6609 28.3538 94.6017 28.3771C94.511 28.4137 93.7437 28.3663 93.4842 28.4513C93.1801 28.5518 93.3319 28.7815 92.8494 28.8752C91.6488 29.1075 91.6803 28.4932 91.5568 28.4533C90.1242 27.9918 90.7515 28.8656 90.4336 28.9357C90.138 29.0001 85.991 28.6638 85.1181 28.8849C85.4733 28.7619 85.8285 28.6388 86.1837 28.5158C85.548 28.1326 84.8742 28.7576 84.8623 28.0705C84.7333 29.1799 83.4213 28.4383 83.0271 28.467C82.8718 28.4788 82.884 28.6678 82.6896 28.676C81.9301 28.7091 80.2179 28.5586 79.806 28.6545C78.0246 29.0672 82.5797 29.7537 82.9384 29.7951C82.2206 29.7829 78.1593 30.0314 80.0261 30.5647C80.3147 30.647 80.8259 30.1505 80.988 30.1311C82.085 30.0033 81.2223 30.4482 81.3083 30.4905C81.4545 30.5588 82.1765 30.1287 82.367 30.1799C82.4306 30.1963 82.0213 30.5992 83.0674 30.6077C82.5529 30.9982 79.6124 30.68 79.2265 30.7717C79.0891 30.8045 79.9506 31.639 77.434 30.8284C77.4631 30.9059 77.4923 30.9833 77.5215 31.0608C76.1203 31.0927 74.719 31.1246 73.3177 31.1565C73.47 30.978 74.2568 30.6195 73.2659 30.6956C72.6954 30.7396 73.1175 31.1372 73.0654 31.1487C72.5535 31.2581 63.4923 31.1258 61.7362 31.1702C61.1389 31.1846 59.4739 31.5041 59.3469 31.51C58.5877 31.542 55.8994 31.3341 55.3631 31.3792C55.0283 31.4081 55.3466 31.7405 55.0475 31.7249C54.7694 31.7099 55.0575 31.3887 54.9749 31.3753C54.2908 31.2589 49.0939 31.6802 47.8599 31.3772C48.6141 31.4682 52.3779 30.8264 52.3022 30.5999C52.2858 30.5688 51.3711 30.3244 51.1824 30.4436C50.8706 30.1655 49.8003 31.0123 49.2182 30.846C49.1523 30.8271 49.4116 30.3521 48.3726 30.2659C48.0146 30.2364 47.0774 30.6066 46.1341 30.1916C44.7686 30.391 37.589 29.775 37.0964 30.2854C37.0818 30.3123 38.0928 30.4881 37.4097 30.6975C36.5017 30.9759 37.3172 30.0381 36.2588 29.9572C36.0993 29.9449 33.1549 30.0398 33.0585 30.0979C32.1667 30.6242 34.7396 30.8375 34.7036 30.8987C34.6139 31.0528 32.476 31.146 32.3891 31.1096C32.3064 31.0718 34.0499 30.3745 31.9548 30.6389C32.1948 30.7223 32.4348 30.8056 32.6748 30.8889C31.6895 31.0512 31.5956 30.5688 31.3569 30.5393C30.6148 30.446 29.8121 31.1788 28.6231 30.2737C28.3087 30.0335 28.8307 29.7667 28.7913 29.7307C28.4136 29.4074 27.9318 30.2723 27.3639 29.6272C27.3212 29.579 28.6428 29.1926 26.3329 29.1916C26.4918 29.2534 26.6508 29.3153 26.8098 29.3771C26.4841 29.5152 24.1453 29.5973 23.8306 29.5647C22.9114 29.4692 23.713 29.0252 22.7892 29.0783C23.3817 29.6868 20.5723 29.7662 20.7339 29.2424C20.3415 29.9003 17.955 29.3928 16.8331 29.3771C16.1252 29.3678 14.6814 29.6549 14.4565 29.6213C14.1825 29.5802 14.2657 29.1313 13.771 29.0314C13.6299 29.0029 12.1571 29.3319 10.8644 28.8674C10.6138 28.7778 10.0877 28.0166 10.5533 27.8263C11.3504 27.5007 12.8582 28.114 12.839 27.6642C12.8164 27.183 10.7855 27.4692 10.2388 27.4064C7.71513 27.1159 9.17243 26.6044 9.10752 26.4493C8.93922 26.073 7.56027 26.0847 7.50273 26.0509C7.26427 25.9006 8.24142 25.6027 8.25617 25.3731C8.27397 25.0741 6.9448 24.5344 7.24698 24.4336C7.67952 24.2905 8.90104 24.7403 8.9785 24.7188C9.98664 24.4287 8.60476 23.7378 8.22391 23.3984C8.10846 23.294 8.56847 23.1224 8.47275 23.0918C7.01155 22.6271 8.16473 24.0627 7.19283 23.9668C6.3257 23.8813 7.44139 23.4273 7.40826 23.4023C7.36545 23.3748 6.32867 23.3501 6.16636 23.1894C6.08637 23.109 8.78113 22.2259 8.6686 21.83C7.80879 21.9172 6.94898 22.0045 6.08918 22.0917C6.02177 21.5755 7.25846 21.9555 7.38638 21.9023C7.64388 21.7954 6.92584 21.5342 6.95666 21.371C6.9732 21.2672 7.81593 20.8967 7.05459 20.744C6.79293 20.6913 6.24381 21.0532 5.29081 20.6835C8.60737 20.2112 6.30905 19.921 6.21129 19.7381C6.11553 19.5553 7.69888 19.1249 5.77697 19.201C5.69364 18.1963 5.8184 18.8834 6.36451 18.7068C7.03352 18.4898 5.48732 18.1589 7.93244 18.4099C7.79334 17.9396 5.82802 17.9728 5.72398 17.9353C5.63413 17.9013 6.07098 17.6699 5.91522 17.5915C4.0728 16.6827 5.33826 17.0977 4.80465 16.5173C4.75719 16.4654 3.01582 16.2502 4.34153 16.1657C6.75678 16.012 7.76619 16.6786 8.17207 15.2536C6.38559 14.6346 4.22102 15.5544 3.67795 15.57C2.84672 15.5924 3.7078 15.3018 3.60537 15.2204C3.5698 15.194 2.8535 15.2181 2.84387 15.195C2.33311 14.1081 6.03268 15.1769 7.19744 14.9879C6.88524 14.8252 6.57303 14.6624 6.26083 14.4996C6.6844 14.4931 7.10797 14.4866 7.53153 14.4801C5.51366 14.1529 7.46039 14.3562 7.96355 13.4762C8.07651 13.2784 6.75084 13.6175 8.26308 13.0679C7.14772 12.9411 7.50348 12.7613 6.49354 13.0093C6.51961 12.6566 8.79191 12.2587 9.68815 12.0777C6.52194 11.6813 8.32751 12.9751 5.59034 12.2906C5.08276 12.7274 6.38926 12.6423 6.28272 12.7144C5.90049 12.9736 5.00443 12.562 3.92334 13.4703C3.74731 13.6194 4.49216 14.0784 3.38994 14.0563C3.26803 14.0531 2.56571 13.6608 2.57545 13.6324C2.66856 13.3252 3.36355 13.4403 3.39225 13.3121C3.41917 13.1907 2.64379 13.2637 2.64112 13.2301C2.61729 12.8452 3.28806 13.083 3.19064 12.9625C2.98025 12.7004 0.191205 11.8722 3.83117 12.1148C0.807792 12.5499 3.44409 12.5397 4.62147 12.3726C4.92173 12.3307 4.99777 12.1008 5.4256 12.021C5.97593 11.9177 6.62005 12.028 6.90482 11.9859C7.21109 11.9394 5.47089 11.396 7.98774 11.5581C6.70683 11.0176 4.44428 11.5939 3.18603 11.2143C0.647476 10.4474 4.95602 10.2828 5.40486 10.2085C5.52444 10.1883 5.12354 9.87785 5.20326 9.85883C5.33361 9.82965 7.77888 9.97317 8.02 9.71625C8.26046 9.45956 7.12434 9.72807 7.04883 9.46038C6.99763 9.28015 9.94751 8.96048 8.35063 8.83731C7.25 8.75287 5.22125 9.47723 4.87953 8.69863C6.49815 8.63417 8.11677 8.56972 9.73539 8.50526C8.84947 8.20903 7.96355 7.91279 7.07763 7.61656C8.89435 7.52261 10.4649 7.85705 12.1904 7.43296C8.04415 6.48371 13.5366 6.6754 13.597 6.55988C13.6172 6.49079 11.9853 5.7203 11.7227 5.57937C13.1688 5.28297 17.563 5.13813 14.9922 4.18674C15.4588 4.40156 16.5888 3.87128 16.5739 3.83126C16.4304 3.41095 13.9658 3.6835 14.3677 3.30389C14.8336 2.86337 15.4863 3.461 16.2029 3.41327C19.8803 3.16446 18.8714 0.970289 22.5588 1.31749C22.4854 1.23936 22.4121 1.16123 22.3387 1.08311C26.3467 1.20746 30.3546 1.33181 34.3626 1.45617C35.9307 0.78611 40.1041 0.378091 42.1538 0.452223C42.5666 0.46666 44.593 0.818322 44.7459 0.879973C45.0291 0.998131 43.472 1.04321 44.1757 1.26475C44.3242 1.31023 47.755 1.45799 47.5097 1.08311C47.1252 1.03964 45.9221 1.22808 45.7252 1.13975C44.3419 0.50926 54.9186 1.01295 55.4426 0.758875C55.2084 0.637126 54.9741 0.515376 54.7399 0.393627C55.4073 0.453526 56.0747 0.513423 56.7421 0.573321ZM26.0736 30.6819C25.6731 31.058 24.6692 30.7755 24.076 30.8811C23.2565 31.029 21.8633 32.4774 22.4631 31.0256C23.6666 30.9111 24.8701 30.7965 26.0736 30.6819ZM43.663 31.2425C42.856 31.0404 43.4819 30.2296 44.1434 30.5666C44.2168 30.605 44.7549 31.5144 43.663 31.2425ZM35.2024 30.8577C35.2364 30.8469 35.9338 30.8684 35.9582 30.8811C36.5836 31.2067 34.4809 31.1401 35.2024 30.8577ZM76.0734 30.4416C75.1842 30.4766 75.8281 31.2138 76.381 30.9104C76.4158 30.8911 76.1319 30.4399 76.0734 30.4416ZM75.4409 30.4221C74.7503 29.762 73.3594 31.0998 74.4651 30.9651C74.5724 30.9515 75.4729 30.4543 75.4409 30.4221ZM40.7864 30.9202C40.8772 30.6672 41.7097 30.7893 42.0651 30.8499C42.0555 31.0808 41.135 30.8919 40.7864 30.9202ZM61.8929 30.8499C61.9282 30.651 59.0348 30.662 58.8377 30.9241C59.2944 30.8129 61.8597 31.0286 61.8929 30.8499ZM69.3132 30.5706C69.2399 30.5362 68.2403 30.5884 68.2695 30.7639C68.7574 30.9941 69.6435 30.7262 69.3132 30.5706ZM84.0617 30.5823C84.1159 30.5382 83.3674 29.4215 85.1411 30.1565C85.4015 30.2641 84.4715 30.5559 84.5639 30.5959C84.7578 30.6741 84.9109 30.7105 85.034 30.717C84.2079 30.8096 83.3498 30.8531 83.2667 30.7854C82.8769 30.4655 84.0376 30.6007 84.0617 30.5823ZM91.8045 29.7502C91.9748 29.5681 93.0617 29.6654 93.3091 29.7404C93.3516 29.7546 93.1664 30.2333 93.6559 30.1975C94.0488 30.1679 93.4618 29.6776 94.2273 29.7561C95.0009 29.8348 93.9673 30.1843 94.0349 30.2092C94.1255 30.2419 95.3221 30.0217 95.2848 30.3069C95.2571 30.5181 93.9752 30.3753 93.6582 30.4202C93.2523 30.4778 93.7444 30.8297 93.066 30.7542C92.6397 30.7069 92.8761 30.0881 92.7861 30.0569C92.7106 30.0317 91.2205 30.3878 91.8068 29.7522C91.8061 29.7515 91.8053 29.7509 91.8045 29.7502ZM85.2575 30.6897C85.1953 30.7106 85.1223 30.7217 85.034 30.717C85.1089 30.7086 85.1836 30.6989 85.2575 30.6897ZM28.4054 30.4104C28.8249 30.6012 27.5797 30.846 27.1082 30.5959C27.1 30.3943 28.3386 30.3807 28.4054 30.4104ZM86.0236 30.1858C87.2507 30.3408 86.3482 30.554 85.2575 30.6897C85.6038 30.5732 85.6115 30.134 86.0236 30.1858ZM51.1824 30.4436C51.2341 30.4897 51.267 30.5617 51.2711 30.6799C51.1351 30.5506 51.1229 30.4812 51.1824 30.4436ZM54.0452 30.6545C55.0266 30.2944 53.0326 30.309 53.0452 30.5666C53.0512 30.6639 54.0059 30.6689 54.0452 30.6545ZM77.2139 30.4768C77.1242 30.4416 78.5188 29.3541 76.4939 30.1701C77.5747 30.2983 76.4344 30.4167 76.4513 30.512C76.4954 30.7857 78.3108 30.5226 78.7127 30.6409C79.0275 30.1511 77.5103 30.5929 77.2162 30.4768C77.2155 30.4768 77.2147 30.4768 77.2139 30.4768ZM105.759 30.0139C105.513 30.3009 104.733 30.2085 104.206 30.1916C104.452 29.9047 105.233 29.997 105.759 30.0139ZM243.558 30.0549C239.95 30.3202 239.483 29.1516 242.784 29.6135C242.849 29.6232 243.777 29.9365 243.558 30.0549ZM212.591 29.7522C212.251 29.2428 213.377 29.1609 214.116 29.3713C214.283 29.4186 214.901 29.9345 214.195 30.0354C214.218 29.418 213.126 29.1822 212.591 29.7522ZM86.7171 29.8596C87.0745 29.5199 88.1744 29.7617 88.7539 29.8127C88.4002 30.0924 87.2296 29.9659 86.7171 29.8596ZM231.702 29.4455C231.321 29.4069 231.064 29.8501 231.13 29.8869C231.424 30.056 232.135 29.6978 231.702 29.4455ZM83.1665 29.8069C83.1162 29.6039 84.5731 29.4085 84.6745 29.9104C84.3631 29.8741 83.2026 29.9342 83.1665 29.8069ZM104.766 29.8615C104.54 29.7583 105.711 29.5736 106.066 29.676C106.037 29.892 104.914 29.9286 104.766 29.8615ZM225.578 29.5959C225.238 29.5574 224.387 29.5457 224.293 29.7248C224.176 29.9487 225.423 29.8724 225.578 29.5959ZM288.948 29.2092C288.991 29.2896 287.673 29.8696 287.087 29.7229C285.975 29.442 288.901 29.1523 288.948 29.2092ZM235.302 29.217C236.376 29.6384 235.183 29.2303 235.23 29.674C235.953 29.69 237.751 29.7119 236.515 29.2756C236.274 29.1912 235.639 29.2457 235.302 29.217ZM234.311 29.0685C234.196 29.2123 233.422 29.6655 234.091 29.633C234.4 29.6173 234.899 29.1138 234.311 29.0685ZM280.783 29.4064C279.82 29.0136 284.233 29.2244 284.36 29.2932C284.427 29.3295 284.471 29.3638 284.496 29.3928C284.658 29.2683 285.492 29.2458 285.588 29.5607C285.338 29.5348 284.656 29.5624 284.577 29.5275C284.543 29.5127 284.517 29.4987 284.5 29.4846C284.206 29.758 280.968 29.4809 280.783 29.4064ZM273.471 29.0021C274.573 28.4226 274.768 29.4079 274.673 29.4397C273.474 29.8429 274.256 29.1163 274.219 29.0822C274.135 29.0256 273.283 29.3628 273.475 29.0021C273.473 29.0021 273.472 29.0021 273.471 29.0021ZM279.284 29.2443C279.33 29.2315 280.254 29.262 280.292 29.2775C281.05 29.6087 278.433 29.5239 279.284 29.2443ZM97.6408 29.0607C98.3029 29.1587 97.6534 29.5212 97.2134 29.3908C97.1772 29.378 97.0567 28.9742 97.6408 29.0607ZM233.782 29.1662C233.629 29.0977 229.702 28.8394 229.938 29.3869C230.271 29.3223 234.735 29.6041 233.782 29.1662ZM204.436 29.0334C205.129 29.0376 204.374 29.554 204.004 29.3615C203.867 29.29 204.262 29.0326 204.436 29.0334ZM81.2023 29.3381C80.4833 29.6218 80.632 28.67 81.2553 28.9963C81.2798 29.009 81.2305 29.327 81.2023 29.3381ZM209.968 29.3303C207.58 29.6432 208.146 28.0061 211.25 28.5588C211.153 28.6317 211.056 28.7046 210.959 28.7775C214.543 29.0231 211.204 28.8929 210.327 28.9846C209.993 29.0194 210.273 29.2927 209.971 29.3322C209.97 29.3316 209.969 29.3309 209.968 29.3303ZM200.795 29.0021C198.495 27.8402 202.885 28.5968 204.145 28.4455C202.924 28.9253 201.334 28.8527 203.496 29.3439C200.335 29.4389 201.651 28.9762 201.525 28.9377C201.376 28.8945 200.893 29.052 200.795 29.0021ZM206.861 28.9943C206.994 28.9604 207.996 29.197 208.357 29.1584C207.852 29.5553 205.979 29.2249 206.861 28.9943ZM265.805 29.2717C265.889 28.9607 266.094 28.7316 266.885 28.8478C266.641 29.0041 266.136 29.1385 265.805 29.2717ZM25.3133 29.0451C24.7689 29.0228 23.6848 28.9056 24.0172 29.2326C24.0536 29.2605 25.3116 29.2286 25.3133 29.0451ZM222.377 28.9142C222.261 28.876 219.267 28.8503 220.301 29.1935C220.613 29.297 223.337 29.2531 222.377 28.9142ZM237.883 28.9533C237.633 28.9501 236.615 29.0086 236.593 29.0822C236.524 29.3365 237.774 29.1967 237.883 28.9533ZM22.5668 28.7267C22.4951 28.6945 20.8322 28.7516 21.015 28.9025C21.362 29.1879 22.8126 28.8379 22.5668 28.7267ZM100.05 28.3322C100.189 28.3207 100.373 28.6585 100.421 28.6623C100.534 28.6671 103.078 28.5372 102.106 28.9709C101.944 29.0436 98.2829 28.877 97.8067 28.8342C97.6225 28.3704 99.1864 28.8116 99.567 28.7638C99.634 28.7548 99.677 28.3668 100.049 28.3341C100.049 28.3335 100.049 28.3328 100.05 28.3322ZM269.924 28.9435C270.036 28.6487 273.028 28.4535 272.993 28.8107C271.97 28.855 270.947 28.8993 269.924 28.9435ZM268.404 28.8947C267.766 28.6861 269.261 28.6171 269.702 28.7092C269.706 28.9075 268.497 28.9252 268.404 28.8947ZM232.21 27.8517C231.909 27.9238 232.833 28.354 232.627 28.4377C232.494 28.4897 231.822 28.3285 231.608 28.4631C231.547 28.5058 232.233 28.9102 232.431 28.8928C232.712 28.8694 232.439 28.5512 232.746 28.549C233.766 28.5422 234.67 28.7691 235.627 28.7638C235.713 28.7627 235.043 28.538 235.78 28.5412C235.894 28.5412 236.577 28.876 237.458 28.8263C239.404 27.7897 240.832 28.8076 243.301 28.4338C243.208 28.3361 241.362 28.0743 241.253 28.0646C239.189 27.8941 235.492 27.8754 233.331 27.8732C232.776 27.8723 233.045 28.0917 232.806 28.0998C232.618 28.1057 232.842 27.6994 232.21 27.8517ZM25.6025 28.8205C25.343 28.4147 24.4327 28.6715 23.8514 28.6506C24.056 29.0166 25.0343 28.7306 25.6025 28.8205ZM254.974 28.5802C254.682 28.5959 253.779 28.4737 253.704 28.5959C253.608 28.7554 254.912 28.8561 254.974 28.5802ZM114.397 28.4474C114.425 28.4364 115.126 28.4581 115.153 28.4709C115.779 28.7966 113.677 28.7298 114.397 28.4474ZM131.167 28.5256C131.699 28.4755 132.235 28.3486 132.414 28.6779C132.075 28.6275 131.105 28.7549 131.167 28.5256ZM154.304 28.5158C154.194 28.0846 155.794 28.3638 156.096 28.4025C155.985 28.5941 154.384 28.8265 154.304 28.5158ZM265.69 27.9181C266.668 27.9436 266.462 27.2905 267.083 27.5861C267.184 27.636 267.512 28.9961 266.437 28.4865C266.243 28.3949 267 28.0717 265.69 27.9181ZM211.756 28.5724C212.005 28.2872 212.783 28.3718 213.308 28.3947C213.19 28.6066 212.13 28.5521 211.756 28.5724ZM19.5635 28.4005C19.1047 27.9978 16.9848 28.2966 17.5094 28.5627C17.584 28.5974 19.2661 28.3853 19.5635 28.4005ZM89.2044 28.5588C90.0766 28.2416 88.2701 28.1434 87.6998 28.4533C87.958 28.433 89.1456 28.5796 89.2044 28.5588ZM148.746 28.2814C148.788 28.2684 149.713 28.299 149.755 28.3146C150.512 28.6458 147.896 28.561 148.746 28.2814ZM125.653 28.0021C125.986 27.7411 128.177 27.9517 128.668 28.213C128.195 28.5946 125.239 28.328 125.653 28.0021ZM261.665 28.1037C262.363 28.0901 263.025 28.1705 263.666 28.2834C263.531 28.5031 261.739 28.2678 261.665 28.1037ZM152.142 28.2541C152.191 28.2558 152.239 28.2807 152.287 28.2834C152.237 28.274 152.189 28.2634 152.142 28.2541ZM246.044 27.9494C245.46 27.8626 245.581 28.2652 245.617 28.2775C246.057 28.4079 246.707 28.0473 246.044 27.9494ZM24.9343 28.2228C24.7315 27.8595 23.7479 28.1413 23.182 28.0548C23.3462 28.3418 24.4785 28.2609 24.9343 28.2228ZM198.332 28.258C197.597 27.864 200.586 27.4064 201.216 27.6603C201.263 27.9037 198.439 28.3119 198.332 28.258ZM86.4959 28.0138C86.4373 27.7291 85.1821 28.0727 85.4487 28.2072C85.6176 28.2928 86.531 28.1907 86.4959 28.0138ZM202.72 27.8263C203 27.7394 203.655 28.0204 203.425 28.1916C203.129 28.411 202.647 27.8512 202.72 27.8263ZM227.921 27.5978C227.798 27.5543 226.146 27.8465 226.828 28.1369C227.302 28.3387 227.377 27.9271 227.489 27.9259C227.613 27.9272 230.264 28.4308 227.921 27.5978ZM181.588 28.0099C182.211 27.9004 182.964 28.0275 183.616 28.0197C183.351 28.1957 181.853 28.2438 181.588 28.0099ZM91.3368 27.9376C91.1855 27.8225 87.0628 27.7532 89.4048 28.1076C89.5414 28.1276 91.7964 28.2863 91.3368 27.9376ZM265.69 27.9181C265.567 27.9149 265.424 27.9013 265.259 27.8732C265.423 27.8843 265.566 27.9035 265.69 27.9181ZM254.58 27.8751C254.805 27.6679 253.671 27.6125 253.336 27.7228C253.233 27.976 254.549 27.9041 254.58 27.8751ZM183.666 27.7306C184.042 27.612 184.724 27.7386 185.189 27.7247C185.11 27.9174 183.829 27.9263 183.666 27.7306ZM157.279 27.5138C158.025 27.6283 158.943 27.5756 158.957 27.34C158.973 27.3768 159.009 27.4159 159.069 27.4552C159.129 27.4941 159.929 27.3845 160.276 27.465C162.355 27.9428 152.247 27.7456 158.106 27.0802C157.83 27.2247 157.554 27.3693 157.279 27.5138ZM122.688 27.4474C122.265 27.1605 121.079 27.52 121.387 27.6329C121.601 27.7103 123.112 27.7362 122.688 27.4474ZM138.985 27.2775C138.859 27.2263 137.701 27.4272 137.671 27.5783C138.337 27.7374 139.562 27.5153 138.985 27.2775ZM119.433 27.1114C119.167 27.0682 118.828 27.5307 118.859 27.5509C119.129 27.7198 119.879 27.369 119.433 27.1114ZM263.664 26.672C263.268 26.5395 262.008 26.8743 261.733 27.1798C261.682 27.1207 261.544 27.0437 261.292 26.9513C261.293 26.9513 261.293 26.9513 261.294 26.9513C260.953 26.8279 250.763 26.6931 257.598 27.2814C257.812 27.3002 257.52 27.026 258.391 27.0743C258.448 27.0778 258.477 27.3017 258.655 27.3126C259.064 27.3363 261.242 27.4772 261.68 27.297C261.684 27.3385 261.712 27.378 261.772 27.4142C262.309 27.7371 263.971 26.7741 263.664 26.672ZM141.281 27.2364C141.048 27.1535 140.31 27.2323 140.234 27.4298C140.6 27.5266 141.822 27.43 141.281 27.2364ZM91.2089 27.1271C90.7341 26.9646 89.5308 27.2683 89.8944 27.4298C90.1175 27.5291 91.7565 27.3136 91.2089 27.1271ZM133.892 27.3419C136.615 27.5754 134.542 27.323 134.959 27.0333C134.603 27.1362 134.248 27.239 133.892 27.3419ZM276.265 27.42C275.831 27.3534 276.341 26.7817 276.819 27.0919C276.969 27.1904 276.508 27.4563 276.265 27.42ZM295.869 27.2423C295.498 26.7354 297.308 27.0332 296.603 27.381C296.57 27.3927 295.896 27.2616 295.869 27.2423ZM282.17 27.0353C281.875 27.3804 281.684 27.4214 280.853 27.3361C282.082 27.2388 280.943 26.9336 282.17 27.0353ZM158.949 27.3029C158.954 27.3168 158.958 27.3271 158.957 27.34C158.952 27.3273 158.949 27.3152 158.949 27.3029ZM116.873 27.2013C116.532 26.9089 115.577 26.9304 115.861 27.2247C115.889 27.252 116.733 27.4173 116.873 27.2013ZM261.733 27.1798C261.778 27.2322 261.755 27.266 261.68 27.297C261.676 27.2579 261.696 27.221 261.733 27.1798ZM122.002 26.963C121.968 27.1811 123.422 27.266 123.48 27.2403C124.314 26.862 122.602 26.9499 122.002 26.963ZM81.5963 26.8204C81.5213 26.8432 82.0049 27.4063 82.3013 27.1857C82.5309 27.0145 81.8771 26.7338 81.5963 26.8204ZM284.989 26.8946C285.45 26.895 286.098 26.8948 286.217 27.1622C285.909 27.1212 284.98 27.0909 284.989 26.8946ZM295.161 26.8751C294.616 27.1895 293.374 27.1887 292.58 27.1368C292.565 26.7229 294.65 26.9724 295.161 26.8751ZM264.913 26.8263C264.875 26.8094 263.72 26.6859 263.878 26.963C264.108 27.3693 265.238 26.9769 264.913 26.8263ZM83.8382 27.1193C84.3544 26.9285 83.1663 26.3421 82.6216 26.795C82.3419 27.027 83.7511 27.1512 83.8382 27.1193ZM113.89 26.8185C113.209 26.9788 114.898 27.2644 115.133 26.9747C114.82 26.9515 114.132 26.7617 113.89 26.8185ZM137.071 26.5255C134.924 25.69 136.093 27.2142 136.474 27.0802C136.527 27.0611 137.123 26.5451 137.071 26.5255ZM14.2364 26.7306C13.9325 26.8467 15.0656 27.2672 15.2122 26.9903C15.3028 26.8171 14.4308 26.6566 14.2364 26.7306ZM169.398 27.0685C169.307 27.0711 169.217 27.0739 169.128 27.0763C169.195 27.0626 169.283 27.0582 169.398 27.0685ZM107.706 25.6993C109.217 26.879 109.059 25.9697 109.19 25.9747C109.474 25.9874 110.133 26.3063 110.668 26.254C110.056 26.3868 109.443 26.5196 108.831 26.6524C109.314 26.7376 113.518 27.1719 113.606 26.9806C113.732 26.7082 112.409 26.7936 112.371 26.7696C112.315 26.7354 112.109 25.9781 111.986 25.9493C111.784 25.9033 108.269 25.8875 107.706 25.6993ZM132.581 26.6563C132.926 26.7464 133.024 27.0464 133.185 26.9747C133.239 26.9502 133.248 26.664 133.435 26.5899C133.15 26.6121 132.866 26.6342 132.581 26.6563ZM105 26.7599C104.572 26.4101 106.49 26.5429 106.552 26.5821C106.88 26.8192 105.35 27.0456 105 26.7599ZM121.276 26.7091C121.206 26.6887 119.733 26.5795 119.745 26.7735C120.135 26.9215 122.104 26.9646 121.276 26.7091ZM133.665 26.5704C134.183 26.6038 135.161 26.892 135.049 26.461C135.048 26.461 135.047 26.461 135.046 26.461C134.586 26.4975 134.126 26.5339 133.665 26.5704ZM85.6054 26.2091C84.6464 25.5227 85.1007 26.39 85.9499 26.6114C86.2071 26.3033 85.7626 26.3207 85.6054 26.2091ZM82.5364 25.6973C82.2696 25.5738 79.5201 25.7091 79.9397 26.0723C80.0887 26.2018 81.6698 25.8753 81.7426 25.9005C81.853 25.9377 81.3487 26.3395 82.1919 26.2598C82.1426 26.1237 82.6277 25.7386 82.5364 25.6973ZM84.8116 25.7696C83.8586 25.2476 83.6445 26.2104 84.3612 26.213C84.6412 26.2147 84.9476 25.8449 84.8116 25.7696ZM88.7044 25.8516C88.3614 25.7603 87.4481 25.6271 86.8185 25.9473C87.661 25.9747 88.5036 26.002 89.3461 26.0294C89.4432 25.848 89.0044 25.9319 88.7021 25.8516C88.7028 25.8516 88.7036 25.8516 88.7044 25.8516ZM300.887 24.4082C300.13 24.1352 301.875 24.0306 301.948 24.0977C302.168 24.3203 301.226 24.5301 300.887 24.4082ZM8.32183 17.9841C8.11143 17.8753 7.97389 17.5172 7.5108 17.7048C7.9766 17.9692 8.44241 18.2335 8.90822 18.4978C9.27022 17.8922 8.55179 18.1042 8.32183 17.9841ZM6.54308 15.7712C6.60888 15.7565 6.24944 14.8252 7.09952 15.4469C7.67387 15.8668 4.5505 16.2759 3.9867 15.863C4.60967 15.6711 5.97667 15.8907 6.54308 15.7712ZM1.07203 11.7398C1.03602 11.6655 2.22267 11.5565 2.36002 11.6089C3.08123 11.8849 1.26688 12.1377 1.07203 11.7398ZM4.85764 11.9175C4.30113 11.7366 5.53398 11.6201 5.90139 11.7241C5.93703 11.8975 4.94361 11.9438 4.85764 11.9175ZM293.219 10.9194C292.617 10.2864 292.079 11.649 293.005 11.3745C293.049 11.3616 293.245 10.9504 293.219 10.9194ZM2.23214 10.8003C2.78865 10.9811 1.5558 11.0977 1.18839 10.9936C1.15422 10.8205 2.1474 10.7738 2.23214 10.8003ZM292.795 9.41155C291.996 8.95607 292.277 10.4848 292.377 10.5464C292.789 10.7896 294.201 10.1896 294.489 10.0405C292.376 10.2699 293.172 9.62618 292.795 9.41155ZM289.107 10.3296C288.365 10.4926 290.261 10.8045 290.623 10.3784C290.254 10.3988 289.318 10.2824 289.107 10.3296ZM284.603 9.8393C284.204 9.78455 283.018 9.65346 282.819 9.89399C283.254 9.85044 284.435 10.0868 284.603 9.8393ZM283.7 9.11857C283.076 8.79174 282.927 9.744 283.646 9.46038C283.674 9.4494 283.723 9.13674 283.7 9.11857ZM280.194 8.7748C279.785 8.3961 279.318 9.31832 279.981 9.34319C280.178 9.34887 280.238 8.81822 280.194 8.7748ZM291.794 7.76695C291.209 7.60434 290.454 8.26476 291.704 8.33729C291.265 8.4382 290.826 8.53912 290.387 8.64003C292.025 9.01022 291.905 8.09434 292.375 8.1322C293.032 8.18601 292.98 8.94179 292.848 9.17912C293.387 8.71608 295.677 8.70867 297 8.6205C295.837 8.42618 293.95 8.08929 292.802 7.96618C292.475 7.93054 292.157 8.13781 291.877 8.11462C291.429 8.07635 291.827 7.7779 291.797 7.76695C291.796 7.76695 291.795 7.76695 291.794 7.76695ZM275.586 8.76113C274.384 8.33215 275.144 9.25835 275.824 9.09318C275.853 9.08046 275.616 8.77161 275.586 8.76113ZM0.637715 7.98571C2.24418 8.37285 1.07648 8.88595 4.43715 8.10681C3.02525 8.65839 4.35907 8.50349 4.08347 8.72597C3.86239 8.902 3.03398 8.75622 3.51552 9.11075C2.88258 8.72488 0.134664 8.83161 0.0121567 8.76894C0.0133087 8.76894 0.0144608 8.76894 0.0156128 8.76894C-0.057966 8.73183 0.125095 7.86259 0.637715 7.98571ZM284.598 7.41733C284.196 6.29352 284.039 8.07725 283.251 7.14584C282.201 8.49838 286.15 7.14603 286.629 8.28846C282.34 8.15571 289.462 9.42046 286.468 7.71031C288.935 8.331 287.277 7.49851 287.657 7.28061C288.065 7.04848 289.46 7.30075 289.389 6.88215C289.388 6.88215 289.387 6.88215 289.387 6.88215C288.533 6.91145 287.68 6.94075 286.827 6.97005C287.662 7.87302 285.918 7.60227 285.327 6.86653C285.084 7.05013 284.841 7.23373 284.598 7.41733ZM289.427 8.26502C289.343 8.24434 287.487 8.3709 287.607 8.55214C287.855 8.66773 290.489 8.52913 289.427 8.26502ZM297.595 8.06775C296.928 8.06555 295.898 7.88939 295.535 8.22986C296.202 8.23215 297.232 8.40841 297.595 8.06775ZM263.281 8.00329C262.432 8.28269 265.047 8.36545 264.29 8.03454C264.253 8.01896 263.323 7.99025 263.281 8.00329ZM282.666 7.58726C281.802 7.24381 282.21 8.33699 282.85 8.05212C282.887 8.03533 282.705 7.60292 282.666 7.58726ZM1.93952 7.85289C1.99729 7.58506 4.32812 7.77319 4.74129 7.77086C4.50654 8.01982 1.87325 8.15994 1.93952 7.85289ZM298.768 7.06576C297.442 6.10269 295.642 7.21507 295.445 7.19076C295.249 7.16599 295.557 6.74501 295.512 6.73371C295.41 6.7101 293.321 6.74543 293.219 6.77473C293.147 6.79758 293.525 7.38918 293.094 7.57554C293.935 7.23938 297.755 7.44969 297.953 7.38413C298.107 7.33178 296.949 6.71052 298.765 7.06576C298.766 7.06576 298.767 7.06576 298.768 7.06576ZM294.952 7.06185C295.474 7.30983 294.01 7.34087 293.656 7.24936C292.869 7.04457 294.885 7.03247 294.952 7.06185ZM291.431 6.83332C291.264 6.7777 289.756 6.72718 289.627 7.00325C290.341 7.36139 291.811 6.96293 291.431 6.83332ZM274.644 6.87044C274.252 6.90581 273.175 6.69365 273.113 6.93489C273.505 6.8997 274.582 7.11169 274.644 6.87044ZM9.89207 5.74735C9.24112 5.54549 10.7493 5.46303 11.1893 5.55984C11.2131 5.72076 9.94748 5.76468 9.89207 5.74735ZM282.519 5.28053C282.287 5.20717 277.554 5.39023 276.89 5.5032C277.54 5.68563 282.23 5.69966 282.443 5.61062C282.505 5.58396 282.549 5.29208 282.519 5.28053ZM292.755 5.1692C293.189 4.81395 293.472 5.24002 293.527 5.24537C294.064 5.29973 295.177 5.21964 294.932 5.56179C293.986 5.42375 291.891 5.87467 292.755 5.1692ZM274.307 5.26295C272.7 5.39479 275.787 5.76906 275.382 5.39772C275.356 5.37527 274.474 5.24911 274.307 5.26295ZM283.048 5.17701C283.402 4.88996 288.137 5.13752 288.897 5.13795C288.216 5.66741 287.668 5.26525 286.753 5.29225C286.506 5.30016 286.572 5.52043 286.546 5.52077C286.118 5.53098 286.438 5.27658 286.175 5.27272C286.008 5.27098 282.549 5.58146 283.048 5.17701ZM293.003 4.9231C293.268 4.71945 296.224 4.63264 296.343 4.68676C297.232 5.08926 293.233 4.99399 293.003 4.9231ZM282.614 4.70629C283.123 4.09095 285.474 4.50305 283.865 4.80981C283.711 4.83772 283.06 4.57098 282.614 4.70629ZM274.479 4.67699C274.4 4.6589 272.725 4.5359 272.695 4.73168C272.937 4.80777 275.379 4.87603 274.479 4.67699ZM275.348 4.01486C275.307 4.01955 275.7 4.39664 274.915 4.34886C274.849 4.34436 274.727 3.9201 273.74 4.07541C273.539 4.10739 273.229 4.38805 273.251 4.4055C274.279 5.0713 277.376 3.79612 275.348 4.01486ZM293.057 4.57933C292.898 4.40026 293.282 3.86874 293.628 4.13791C293.777 4.25414 293.5 4.57312 293.057 4.57933ZM269.166 4.50511C270.14 4.18276 267.082 4.12182 266.926 4.20432C267.025 4.40511 269.068 4.5366 269.166 4.50511ZM11.4162 3.25897C11.4154 3.25897 11.4147 3.25897 11.4139 3.25897C12.2333 3.33201 11.7258 3.60017 11.7641 3.60859C13.5094 4.00247 13.0465 3.3951 13.3194 3.32343C13.9046 3.16841 13.8103 3.90701 14.7975 3.60078C13.1657 4.05299 14.651 3.86342 14.6972 4.12619C14.8801 5.19853 12.5247 3.62407 11.7111 3.84884C11.5978 3.87996 12.4347 4.2222 12.1443 4.31956C11.2 4.63503 8.2722 2.97965 11.4162 3.25897ZM293.896 4.09103C294.276 3.77605 297.159 4.08156 296.394 4.34104C296.271 4.38265 293.337 4.55014 293.896 4.09103ZM159.21 3.62617C159.903 3.35358 158.297 3.03313 158 3.2453C157.852 3.351 158.906 3.7458 159.21 3.62617ZM147.95 2.46011C147.127 2.51545 146.259 3.65218 147.283 3.47578C147.392 3.45649 148.045 2.61779 147.95 2.46011ZM202.018 3.04412C201.158 2.63789 201.209 3.39267 201.841 3.38202C202.063 3.37838 202.045 3.05697 202.018 3.04412ZM169.203 3.14178C169.117 3.11543 168.123 3.16362 168.16 3.3371C168.527 3.44118 169.76 3.32264 169.203 3.14178ZM202.291 2.93669C201.781 3.07273 202.659 3.61864 203.282 3.08514C202.965 3.1289 202.344 2.92279 202.291 2.93669ZM280.837 3.03826C280.41 3.34819 279.203 3.25454 278.509 3.3078C278.434 2.90627 280.342 3.11106 280.837 3.03826ZM151.446 2.91716C150.666 3.20016 152.336 3.43185 152.183 3.05779C152.162 3.03747 151.476 2.90509 151.446 2.91716ZM229.757 2.89567C229.19 3.1352 230.989 3.45731 230.494 3.03631C230.47 3.01914 229.788 2.88235 229.757 2.89567ZM237.613 3.03435C237.183 2.95356 235.35 2.97841 236.063 3.21209C236.174 3.248 237.58 3.25374 237.613 3.03435ZM13.3678 3.03435C13.1362 2.62188 14.4806 2.72006 14.673 2.79216C14.7486 2.82214 13.6699 3.57101 13.3678 3.03435ZM196.434 2.97966C195.989 3.03127 194.835 2.9332 194.632 3.14959C195.177 3.1048 196.58 3.41072 196.434 2.97966ZM155 2.91521C154.321 2.467 153.161 2.51123 153.448 3.09685C154.729 3.05761 153.29 2.57048 155 2.91521ZM205.156 2.45425C204.799 2.42006 204.526 2.98247 204.566 3.00896C204.953 3.26105 205.511 2.67307 205.156 2.45425ZM178.386 2.91716C178.366 2.67682 177.222 2.7859 177.375 2.9406C177.425 2.99253 178.403 3.11166 178.386 2.91716ZM265.861 2.90154C265.337 2.68216 266.937 2.46769 267.41 2.72379C267.64 3.09282 265.927 2.92673 265.861 2.90154ZM215.049 2.59488C215.102 2.2382 213.315 2.43986 214.019 2.73551C214.195 2.80949 215.03 2.71414 215.049 2.59488ZM232.16 2.16713C230.961 2.59247 235.996 2.89444 234.673 2.3644C234.578 2.32664 232.264 2.13121 232.16 2.16713ZM240.382 2.43277C240.175 2.3859 240.278 1.18736 241.134 1.64953C241.247 1.70947 240.721 2.0263 240.813 2.09877C240.867 2.14007 242.728 2.3084 242.814 2.28042C242.906 2.24865 242.798 1.8645 242.891 1.82142C242.997 1.77326 244.143 2.11071 244.743 2.1144C245.873 2.12072 245.996 1.80099 246.088 1.79993C246.358 1.79781 246.812 2.02483 247.36 2.02455C250.12 2.022 254.342 1.75098 256.53 2.42886C254.583 2.15664 252.727 2.44546 250.79 2.53433C251.357 1.86693 247.939 3.04857 249.938 2.27846C249.018 2.44551 241.06 2.5791 240.384 2.43277C240.384 2.43277 240.383 2.43277 240.382 2.43277ZM144.701 2.12416C145.206 1.71494 142.611 1.80699 142.391 2.28042C142.733 2.34612 144.638 2.17054 144.701 2.12416ZM156.675 1.12608C156.916 1.05544 157.145 0.255548 158.409 0.661216C158.41 0.661216 158.411 0.661216 158.412 0.661216C158.782 0.779686 158.361 0.974592 158.428 1.04404C158.453 1.0724 159.606 1.47031 158.648 1.5343C157.188 1.63247 158.511 0.939225 157.732 0.930757C157.637 0.930101 156.164 1.36308 156.25 1.45812C156.259 1.46919 156.702 1.3776 156.775 1.4171C157.052 1.5656 156.917 1.81539 156.956 1.82728C157.083 1.85774 159.413 1.43219 159.752 1.80384C159.862 1.92368 156.038 2.20014 155.889 2.13783C155.795 2.09857 155.835 1.40521 155.737 1.33702C155.687 1.30306 154.149 1.56288 153.949 1.49914C153.891 1.4807 153.847 1.46083 153.814 1.44445C154.047 1.65896 152.654 1.64352 152.697 1.40148C152.721 1.30635 153.68 1.36141 153.714 1.37804C153.729 1.38508 153.742 1.39478 153.754 1.40148C153.556 1.14005 156.802 1.15184 156.101 0.762782C157.042 0.549647 155.968 1.33352 156.675 1.12608ZM161.198 0.698326C161.101 0.771246 161.003 0.844165 160.906 0.917085C162.554 0.738605 164.454 1.08963 166.352 1.08701C166.834 1.08688 166.28 0.640917 166.911 0.762782C167.416 0.860445 167.976 1.27409 167.701 1.36632C167.634 1.38933 166.605 1.11991 166.089 1.14756C164.568 1.22942 164.952 1.61186 164.864 1.62219C164.765 1.63306 163.808 1.36411 163.285 1.37609C161.971 1.40704 161.37 1.64184 159.575 1.33507C160.611 1.08302 160.043 0.535456 161.198 0.698326ZM222.598 1.51281C222.661 1.27209 223.739 1.48566 224.13 1.45031C224.069 1.69162 222.99 1.47744 222.598 1.51281ZM61.962 1.2003C61.6309 1.59531 64.1126 1.69312 63.4585 1.36437C63.3138 1.2914 62.2738 1.20311 61.962 1.2003ZM73.1103 1.44054C73.4423 1.33133 72.1056 1.04692 72.1081 1.35265C72.11 1.45069 73.0676 1.45474 73.1103 1.44054ZM182.491 1.08701C182.554 1.07464 183.467 1.16262 183.496 1.18272C184.1 1.60215 181.095 1.35973 182.491 1.08701ZM86.663 0.954195C85.5059 1.21311 88.9886 1.32533 87.9245 0.995213C87.8714 0.979133 86.7186 0.941612 86.663 0.954195ZM91.5038 0.881927C91.2265 0.895803 89.9948 0.767247 89.9785 0.887787C89.954 1.08225 91.3639 1.21513 91.5038 0.881927ZM205.397 0.962008C205.263 0.516929 206.888 0.853987 207.452 0.797939C207.586 1.24333 205.961 0.905801 205.397 0.962008ZM195.145 0.63387C201.992 0.28301 200.483 1.23395 194.737 0.850676C194.729 0.565142 194.713 0.655968 195.145 0.63387ZM203.913 0.686607C203.664 0.97174 202.887 0.88719 202.361 0.864348C202.456 0.666107 203.534 0.737852 203.913 0.686607ZM59.0071 0.588947C59.4365 0.228757 61.3382 0.67281 61.0001 0.821378C60.9214 0.853462 58.8494 0.787026 59.0071 0.588947ZM183.065 0.706139C182.905 0.273285 184.961 0.449847 185.119 0.545977C185.753 0.932636 183.231 0.610602 183.065 0.706139ZM215.116 0.581134C215.479 0.242085 216.51 0.416471 217.173 0.420972C216.871 0.710883 215.678 0.587234 215.116 0.581134ZM210.328 0.315499C210.369 0.302485 211.294 0.333096 211.336 0.348703C212.094 0.679858 209.477 0.59505 210.328 0.315499ZM10.2803 0.00298691C10.3111 -0.00793839 11.0116 0.0136805 11.036 0.0264254C11.6613 0.351944 9.55885 0.285429 10.2803 0.00298691Z" fill="var(--stroke-0, #EECF01)"/>
</svg>
