<svg width="80" height="80" viewBox="0 0 80 80" fill="none" xmlns="http://www.w3.org/2000/svg">
  <!-- Can body (straight sides) -->
  <rect x="16" y="27" width="48" height="54" fill="#8AAFC8"/>
  <!-- Body left highlight -->
  <rect x="16" y="27" width="8" height="54" fill="#A8C8DC"/>
  <!-- Body right shadow -->
  <rect x="56" y="27" width="8" height="54" fill="#6A8FA6"/>
  <!-- Body outline -->
  <rect x="16" y="27" width="48" height="54" stroke="#2D2D2D" stroke-width="2.5" fill="none"/>

  <!-- Vertical slots -->
  <rect x="29" y="33" width="5" height="40" rx="2.5" fill="#2D2D2D" opacity="0.55"/>
  <rect x="38" y="33" width="5" height="40" rx="2.5" fill="#2D2D2D" opacity="0.55"/>
  <rect x="47" y="33" width="5" height="40" rx="2.5" fill="#2D2D2D" opacity="0.55"/>

  <!-- Bottom rim -->
  <rect x="16" y="77" width="48" height="4" rx="1" fill="#5A7F96" stroke="#2D2D2D" stroke-width="1.5"/>

  <!-- Lid -->
  <rect x="13" y="20" width="54" height="11" rx="2" fill="#9BBDD6" stroke="#2D2D2D" stroke-width="2.5"/>
  <!-- Lid top highlight -->
  <rect x="15" y="21.5" width="50" height="3" rx="1" fill="#BDD4E8"/>
  <!-- Lid bottom shadow -->
  <rect x="15" y="28" width="50" height="2" rx="1" fill="#7AA0B8"/>

  <!-- Handle -->
  <rect x="29" y="10" width="22" height="12" rx="4" fill="#9BBDD6" stroke="#2D2D2D" stroke-width="2.5"/>
  <!-- Handle inner cutout -->
  <rect x="33" y="13.5" width="14" height="5" rx="2" fill="#2D2D2D" opacity="0.45"/>
</svg>
